<?xml version="1.0" standalone="no"?>
<!DOCTYPE svg PUBLIC "-//W3C//DTD SVG 20010904//EN"
 "http://www.w3.org/TR/2001/REC-SVG-20010904/DTD/svg10.dtd">
<svg version="1.0" xmlns="http://www.w3.org/2000/svg"
 width="700.000000pt" height="700.000000pt" viewBox="0 0 700.000000 700.000000"
 preserveAspectRatio="xMidYMid meet">
<metadata>
Created by potrace 1.11, written by Peter Selinger 2001-2013
</metadata>
<g transform="translate(0.000000,700.000000) scale(0.100000,-0.100000)"
fill="#000000" stroke="none">
<path d="M6 6983 c-2 -2 -1 -95 2 -206 6 -242 7 -2433 1 -2767 l-4 -235 360 0
360 0 -2 587 c-1 368 2 590 8 594 14 8 1047 8 1252 0 135 -6 167 -5 167 6 1
22 1 642 1 661 -1 15 -8 16 -53 11 -83 -10 -1367 -13 -1373 -4 -5 9 -6 545 -1
628 2 24 9 47 16 52 7 4 58 9 114 10 161 4 1230 4 1346 0 l105 -4 3 336 2 335
-1150 0 c-632 0 -1151 -2 -1154 -4z"/>
<path d="M2882 6974 c-164 -43 -230 -153 -219 -369 11 -233 127 -329 385 -319
212 9 310 111 318 329 6 192 -57 308 -193 350 -72 23 -220 27 -291 9z"/>
<path d="M2673 6083 c-5 -2 -7 -481 -7 -1065 1 -585 -1 -1101 -5 -1147 -5 -73
-4 -84 11 -90 9 -3 169 -6 355 -5 l338 0 -4 125 c-6 178 -5 1901 1 2047 3 73
1 125 -4 128 -9 6 -670 12 -685 7z"/>
<path d="M3810 5625 c0 0 -1 -156 -3 -348 -2 -302 0 -347 13 -348 8 -1 94 0
190 2 270 5 2624 3 2808 -2 90 -3 165 -2 168 2 2 5 5 162 5 349 l0 342 -1591
1 c-874 1 -1590 2 -1590 2z"/>
<path d="M2220 3202 c-6 -2 -8 -98 -4 -270 9 -357 9 -2282 0 -2644 l-6 -288
357 0 358 0 0 587 0 588 640 -1 c352 0 673 -3 713 -6 61 -4 72 -2 73 11 4 103
-1 662 -6 670 -3 6 -10 9 -15 6 -19 -12 -303 -18 -820 -17 -305 0 -563 1 -573
1 -18 1 -19 16 -15 340 1 187 7 343 11 348 5 4 363 9 795 9 l787 2 2 331 c1
182 -2 331 -5 332 -27 2 -2284 3 -2292 1z"/>
<path d="M4875 2300 c-2 -3 -1 -46 1 -95 3 -50 6 -416 8 -815 2 -399 7 -745
10 -770 12 -81 17 -104 42 -180 62 -187 182 -313 385 -402 l74 -33 530 0 530
0 90 37 c101 43 169 86 236 149 46 44 99 111 99 125 0 4 6 15 14 23 19 22 63
155 75 226 5 33 10 267 11 520 1 436 8 1081 14 1172 1 32 -2 44 -13 47 -14 3
-676 0 -691 -3 -3 -1 -3 -29 -1 -63 8 -109 6 -1471 -2 -1511 -19 -96 -88 -172
-185 -202 -74 -24 -235 -27 -311 -8 -60 16 -111 43 -143 77 -21 22 -69 110
-67 123 0 5 -3 28 -6 53 -9 54 -8 1065 0 1340 l6 195 -351 0 c-194 0 -353 -2
-355 -5z"/>
<path d="M1 1475 l0 -353 132 5 c172 6 1014 8 1327 2 l245 -4 0 340 c1 187 -1
346 -3 353 -3 9 -29 11 -111 5 -134 -8 -1236 -9 -1438 0 l-151 6 -1 -354z"/>
</g>
</svg>
