<svg enable-background="new 0 0 300 300" viewBox="0 0 300 300" xmlns="http://www.w3.org/2000/svg"><path d="m52.5 286.1c-16-9.3-28-21.4-36-36.3s-12-30.6-12-47c0-14.9 2.6-28.7 7.7-41.4s12.5-23.6 22.1-32.8 21-16 34.2-20.5v-.6c-6.8-4-12.4-9.9-16.6-17.6-4.3-7.7-6.4-16.6-6.4-26.9 0-11.7 2.8-22.3 8.5-31.8 5.6-9.5 13.5-17 23.7-22.5 10.1-5.5 21.7-8.3 34.7-8.3 12.2 0 23.1 2.5 32.8 7.4s17.3 11.9 22.9 21.1c5.5 9.2 8.3 20 8.3 32.6v9.3l-.6.6c-6.2-.2-14.3-.3-24.3-.3-8.7 0-15.6.1-20.5.3l-.6-.6v-5.8c0-6.2-1.7-10.8-5.1-13.9s-7.7-4.6-12.8-4.6c-5.8 0-10.4 1.8-14.1 5.4-3.6 3.6-5.4 8.6-5.4 15 0 7.9 2.7 13.8 8.2 17.7 5.4 3.9 12.7 5.9 21.9 5.9 8.3 0 14.5-.1 18.5-.3l.6.6c-.2 4.1-.3 10.4-.3 19.2 0 9.4.1 16.2.3 20.5l-.6.6h-12.5c-14.5 0-27.4 2.9-38.7 8.8s-20.1 13.9-26.4 24-9.4 21.6-9.4 34.4c0 11.7 2.6 21.8 7.8 30.2s12.3 14.8 21.3 19c9 4.3 19.1 6.4 30.4 6.4 10.4 0 19.2-1.8 26.4-5.3 7.1-3.5 12.5-8 16-13.4s5.3-11 5.3-16.8c0-6-1.8-10.8-5.3-14.4s-7.9-5.4-13.3-5.4c-5.3 0-9.6 1.9-13 5.8-3.3 3.8-5 9.1-5 15.7l-1 .6c-4.5-.2-12.4-.3-23.7-.3-10.2 0-17.5.1-21.7.3l-.6-.6c0-13.6 2.4-25.6 7.2-35.8 4.6-10.3 11.6-18.1 20.8-23.6 9.2-5.4 20-8.2 32.6-8.2h76.1c9.8 0 17.4-1.9 22.7-5.8 5.3-3.8 8-9.5 8-16.9 0-6.2-1.7-11.1-5-14.7s-7.8-5.4-13.6-5.4c-5.5 0-9.9 1.9-13.1 5.6s-4.8 8.9-4.8 15.5l-1 .6c-4.5-.2-12.4-.3-23.7-.3s-19.1.1-23.3.3l-.6-.6c0-13.6 2.8-25.5 8.5-35.7 5.6-10.1 13.5-17.9 23.7-23.3 10.1-5.4 21.8-8.2 35-8.2 13.4 0 25.3 2.8 35.5 8.3s18.2 13.2 23.8 22.9 8.5 20.5 8.5 32.5c0 13-3.4 24.7-10.2 35.2-6.8 10.4-16.2 18.5-28 24.3s-25.1 8.6-39.8 8.6h-11.2l-.3.6c.4 3 .8 6.2 1.1 9.8.3 3.5.5 6.9.5 10.1 0 16-4 30.4-12 43.2s-19.3 22.8-33.9 30.1c-14.6 7.2-31.5 10.9-50.7 10.9-23-.1-42.5-4.7-58.5-14z"/></svg>