<?xml version="1.0" encoding="utf-8"?>
<!-- Generator: Adobe Illustrator 22.1.0, SVG Export Plug-In . SVG Version: 6.00 Build 0)  -->
<svg version="1.1" id="Layer_1" xmlns="http://www.w3.org/2000/svg" xmlns:xlink="http://www.w3.org/1999/xlink" x="0px" y="0px"
	 viewBox="0 0 300 300" style="enable-background:new 0 0 300 300;" xml:space="preserve">
<g>
	<path d="M52.5,286.1c-16-9.3-28-21.4-36-36.3c-8-14.9-12-30.6-12-47c0-14.9,2.6-28.7,7.7-41.4c5.1-12.7,12.5-23.6,22.1-32.8
		c9.6-9.2,21-16,34.2-20.5v-0.6c-6.8-4-12.4-9.9-16.6-17.6c-4.3-7.7-6.4-16.6-6.4-26.9c0-11.7,2.8-22.3,8.5-31.8
		c5.6-9.5,13.5-17,23.7-22.5c10.1-5.5,21.7-8.3,34.7-8.3c12.2,0,23.1,2.5,32.8,7.4c9.7,4.9,17.3,11.9,22.9,21.1
		c5.5,9.2,8.3,20,8.3,32.6v9.3l-0.6,0.6c-6.2-0.2-14.3-0.3-24.3-0.3c-8.7,0-15.6,0.1-20.5,0.3l-0.6-0.6V65c0-6.2-1.7-10.8-5.1-13.9
		c-3.4-3.1-7.7-4.6-12.8-4.6c-5.8,0-10.4,1.8-14.1,5.4c-3.6,3.6-5.4,8.6-5.4,15c0,7.9,2.7,13.8,8.2,17.7c5.4,3.9,12.7,5.9,21.9,5.9
		c8.3,0,14.5-0.1,18.5-0.3l0.6,0.6c-0.2,4.1-0.3,10.4-0.3,19.2c0,9.4,0.1,16.2,0.3,20.5l-0.6,0.6h-12.5c-14.5,0-27.4,2.9-38.7,8.8
		c-11.3,5.9-20.1,13.9-26.4,24c-6.3,10.1-9.4,21.6-9.4,34.4c0,11.7,2.6,21.8,7.8,30.2c5.2,8.4,12.3,14.8,21.3,19
		c9,4.3,19.1,6.4,30.4,6.4c10.4,0,19.2-1.8,26.4-5.3c7.1-3.5,12.5-8,16-13.4c3.5-5.4,5.3-11,5.3-16.8c0-6-1.8-10.8-5.3-14.4
		c-3.5-3.6-7.9-5.4-13.3-5.4c-5.3,0-9.6,1.9-13,5.8c-3.3,3.8-5,9.1-5,15.7l-1,0.6c-4.5-0.2-12.4-0.3-23.7-0.3
		c-10.2,0-17.5,0.1-21.7,0.3l-0.6-0.6c0-13.6,2.4-25.6,7.2-35.8C90,174,97,166.2,106.2,160.7c9.2-5.4,20-8.2,32.6-8.2h76.1
		c9.8,0,17.4-1.9,22.7-5.8c5.3-3.8,8-9.5,8-16.9c0-6.2-1.7-11.1-5-14.7c-3.3-3.6-7.8-5.4-13.6-5.4c-5.5,0-9.9,1.9-13.1,5.6
		c-3.2,3.7-4.8,8.9-4.8,15.5l-1,0.6c-4.5-0.2-12.4-0.3-23.7-0.3c-11.3,0-19.1,0.1-23.3,0.3l-0.6-0.6c0-13.6,2.8-25.5,8.5-35.7
		c5.6-10.1,13.5-17.9,23.7-23.3c10.1-5.4,21.8-8.2,35-8.2c13.4,0,25.3,2.8,35.5,8.3c10.2,5.5,18.2,13.2,23.8,22.9
		c5.6,9.7,8.5,20.5,8.5,32.5c0,13-3.4,24.7-10.2,35.2c-6.8,10.4-16.2,18.5-28,24.3c-11.8,5.8-25.1,8.6-39.8,8.6h-11.2l-0.3,0.6
		c0.4,3,0.8,6.2,1.1,9.8c0.3,3.5,0.5,6.9,0.5,10.1c0,16-4,30.4-12,43.2c-8,12.8-19.3,22.8-33.9,30.1c-14.6,7.2-31.5,10.9-50.7,10.9
		C88,300,68.5,295.4,52.5,286.1z"/>
</g>
</svg>
