<svg height="40" viewBox="0 0 40 40" width="40" xmlns="http://www.w3.org/2000/svg"><g fill="none"><path d="m20 40c11.0450098 0 20-8.9549902 20-20 0-11.04500978-8.962818-20-20-20s-20 8.95499022-20 20c0 11.0450098 8.95499022 20 20 20" fill="#ede9e6"/><path d="m28 16.9393346h-18.47358121l3.88258321-4.3522505c.2504892-.2818003.2270058-.7123287-.0547946-.9706457-.2818004-.2504893-.7123287-.2270059-.9706458.0547945l-4.37573381 4.9001957c-.53228963.5949119-.53228963 1.4951076 0 2.0978473l4.37573381 4.9001957c.1330725.148728.3209394.2270059.5088063.2270059.1643836 0 .3287671-.0547945.4540117-.1722114.2818004-.2504892.3052838-.6888454.0547946-.9706457l-3.8825832-4.3522505h18.4735812c2.9589041 0 5.369863 2.4109589 5.369863 5.369863s-2.4031311 5.369863-5.3620352 5.369863h-3.2641879c-.3757338 0-.6888454.3052837-.6888454.6888454 0 .3757338.3052838.6888454.6888454.6888454h3.2641879c3.7181996 0 6.739726-3.0215264 6.739726-6.739726-.0078278-3.7181996-3.0293542-6.7397261-6.739726-6.7397261z" fill="#000" stroke="#000" stroke-width="2"/></g></svg>