<svg height="40" viewBox="0 0 40 40" width="40" xmlns="http://www.w3.org/2000/svg"><g fill="none"><path d="m20 40c11.0450098 0 20-8.9549902 20-20 0-11.04500978-8.9549902-20-20-20-11.04500978 0-20 8.95499022-20 20 0 11.0450098 8.95499022 20 20 20" fill="#ede9e6"/><g fill="#000" transform="translate(7.749511 12.133072)"><path d="m23.2720157 6.66144814h-22.05088067c-.66536204 0-1.20547945.54011742-1.20547945 1.20547945 0 .66536204.54011741 1.20547946 1.20547945 1.20547946h22.05088067c.665362 0 1.2054794-.54011742 1.2054794-1.20547946.0078278-.66536203-.5322896-1.20547945-1.2054794-1.20547945z"/><path d="m21.667319.01565558h-18.83365951c-.66536203 0-1.20547945.54011741-1.20547945 1.20547945 0 .66536203.54011742 1.20547945 1.20547945 1.20547945h18.83365951c.665362 0 1.2054794-.54011742 1.2054794-1.20547945 0-.66536204-.5401174-1.20547945-1.2054794-1.20547945z"/><path d="m21.667319 13.2994129h-18.83365951c-.66536203 0-1.20547945.5401174-1.20547945 1.2054795 0 .665362.54011742 1.2054794 1.20547945 1.2054794h18.83365951c.665362 0 1.2054794-.5401174 1.2054794-1.2054794 0-.6653621-.5401174-1.2054795-1.2054794-1.2054795z"/></g></g></svg>