<?xml version="1.0" encoding="utf-8"?>
<!-- Generator: Adobe Illustrator 19.2.1, SVG Export Plug-In . SVG Version: 6.00 Build 0)  -->
<svg version="1.1" id="Layer_1" xmlns="http://www.w3.org/2000/svg" xmlns:xlink="http://www.w3.org/1999/xlink" x="0px" y="0px"
	 viewBox="0 0 317.4 404.3" style="enable-background:new 0 0 317.4 404.3;" xml:space="preserve">
<style type="text/css">
	.st0{fill:#FFFFFF;}
	.st1{clip-path:url(#SVGID_2_);fill:#FFFFFF;}
</style>
<g>
	<path class="st0" d="M4.9,101c0.3-7.3,0.4-18.1,0.4-32.6V35.8c0-14.5-0.1-25.4-0.4-32.7l0.3-0.2C11.8,3,21.8,3,35,3h10.6
		c13.3,0,23.2,0,29.8-0.1l0.3,0.3c-0.1,2.2-0.1,5.6-0.1,9.9c0,4.5,0,7.8,0.1,10.1l-0.3,0.3c-4.4-0.2-11.2-0.3-20.1-0.3h-7.7
		c-9,0-15.7,0.1-20.2,0.3l-0.3,0.3c-0.2,2.2-0.3,5.6-0.3,10.2s0,8,0.1,10.4l0.3,0.3c4.1,0.1,10.3,0.1,18.5,0.1H52
		c3.1,0,6.3,0,9.5-0.1c3.3,0,6.3-0.2,9-0.5l0.3,0.4c-0.1,2.2-0.1,5.6-0.1,10.1s0,7.9,0.1,10.2l-0.3,0.4C66.4,65,60.2,64.9,52,64.9
		h-6.3c-8.2,0-14.4,0-18.5,0.1L27,65.3c-0.1,1.4-0.1,7.3-0.1,17.8C26.9,91,27,97,27.2,101l-0.3,0.3c-2.4-0.1-6-0.1-10.8-0.1
		c-4.9-0.1-8.5,0-10.9,0.1L4.9,101z"/>
	<path class="st0" d="M88.6,18.8c-1.6-1.7-2.4-4.3-2.4-8c0-3.6,0.8-6.3,2.4-8C90.3,0.9,93.1,0,97.1,0c3.9,0,6.7,0.9,8.4,2.8
		c1.6,1.7,2.4,4.3,2.4,8c0,3.6-0.8,6.3-2.4,8c-1.7,1.9-4.5,2.8-8.4,2.8C93.1,21.6,90.3,20.7,88.6,18.8z M86.2,101
		c0.3-4.9,0.4-12.6,0.4-23.1V54c0-10.5-0.1-18.2-0.4-23.1l0.3-0.3c2.3,0.1,5.9,0.1,10.6,0.1c4.8,0,8.3,0,10.6-0.1l0.3,0.3
		c-0.3,4.9-0.4,12.6-0.4,23.1v23.9c0,10.5,0.1,18.2,0.4,23.1l-0.3,0.3c-2.3-0.1-5.9-0.1-10.6-0.1c-4.8,0-8.3,0-10.6,0.1L86.2,101z"
		/>
	<path class="st0" d="M126.3,101c0.3-7.3,0.4-18.2,0.4-32.9V35.3c0-14.7-0.1-25.6-0.4-32.9l0.3-0.3c2.3,0.2,5.8,0.2,10.6,0.2
		s8.3,0,10.6-0.1l0.3,0.3c-0.3,7.3-0.4,18.2-0.4,32.9v32.8c0,14.7,0.1,25.6,0.4,32.9l-0.3,0.3c-2.3-0.1-5.9-0.1-10.6-0.1
		c-4.8,0-8.3,0-10.6,0.1L126.3,101z"/>
	<path class="st0" d="M166.3,101c0.3-7.3,0.4-18.2,0.4-32.9V35.3c0-14.7-0.1-25.6-0.4-32.9l0.3-0.3c2.3,0.2,5.9,0.2,10.6,0.2
		c4.8,0,8.3,0,10.6-0.1l0.3,0.3c-0.3,7.3-0.4,18.2-0.4,32.9v32.8c0,14.7,0.1,25.6,0.4,32.9l-0.3,0.3c-2.3-0.1-5.9-0.1-10.6-0.1
		c-4.8,0-8.3,0-10.6,0.1L166.3,101z"/>
	<g>
		<g>
			<defs>
				<rect id="SVGID_1_" x="203.5" y="30.8" width="76.8" height="107.4"/>
			</defs>
			<clipPath id="SVGID_2_">
				<use xlink:href="#SVGID_1_"  style="overflow:visible;"/>
			</clipPath>
			<path class="st1" d="M232.4,87.2c-2.7,0-4.8-0.5-6.2-1.4s-2.1-2.2-2.1-4c0-2.4,1.4-4.2,4.2-5.5s6.7-2,11.7-2h5.3
				c0.4,0,0.5,0.2,0.5,0.5v1.8c0,2-0.5,3.8-1.6,5.4s-2.7,2.9-4.7,3.8C237.5,86.8,235.1,87.2,232.4,87.2 M280,119.6
				c-4.5-0.2-7.8-1.8-10.1-4.7c-2.3-3-3.4-7-3.4-12.2V62c0-10.7-2.4-18.5-7.2-23.6c-4.8-5.1-12.1-7.6-22-7.6c-6.3,0-11.7,1-16.4,2.9
				c-4.6,1.9-8.2,4.8-10.7,8.6c-2.6,3.8-3.8,8.5-3.8,14.1v1.2l0.3,0.3c4.1-0.2,7.5-0.3,10.1-0.3s6,0.1,10,0.3l0.3-0.3v-1.2
				c0-2.7,0.9-5,2.7-6.7s4.3-2.6,7.6-2.6c2.9,0,5.1,0.8,6.4,2.5c1.4,1.7,2.1,4.4,2.1,8.3v2.7c0,0.3-0.1,0.4-0.4,0.4h-5.3
				c-7.8,0-14.4,0.9-19.8,2.8c-5.5,1.9-9.6,4.5-12.5,8c-2.8,3.5-4.2,7.6-4.2,12.5c0,3.8,0.9,7.2,2.7,10s4.4,5,7.8,6.4
				c3.4,1.5,7.3,2.2,11.9,2.2c4.4,0,8.2-0.7,11.6-2.1c3.3-1.4,6-3.3,8-5.7l0.4,0.1v8.8c0,6.7,1.3,12.5,3.8,17.4
				c2.6,5,6.2,8.9,10.9,11.8c4.7,2.9,10.2,4.5,16.5,5l0.3-0.3c0.5-6.2,1.5-12.2,2.9-18.1L280,119.6z"/>
		</g>
	</g>
</g>
<g>
	<path class="st0" d="M4.9,250.9c0.3-7.3,0.4-18.2,0.4-32.6v-32.6c0-14.5-0.1-25.3-0.4-32.6l0.3-0.3c6.6,0.1,16.6,0.1,29.8,0.1h10.6
		c13.3,0,23.2,0,29.8-0.1l0.3,0.3c-0.1,2.2-0.1,5.6-0.1,9.9c0,4.5,0,7.8,0.1,10.1l-0.3,0.3c-4.5-0.2-11.2-0.3-20.2-0.3h-7.7
		c-9,0-15.7,0.1-20.2,0.3l-0.3,0.3c-0.2,2.2-0.3,5.6-0.3,10.2c0,4.6,0,8,0.1,10.4l0.3,0.3c4.1,0.1,10.3,0.1,18.5,0.1h6.3
		c3.1,0,6.3,0,9.5-0.1c3.3,0,6.3-0.2,9-0.5l0.3,0.4c-0.1,2.2-0.1,5.6-0.1,10.1s0,7.9,0.1,10.2l-0.3,0.4c-4.1-0.3-10.3-0.4-18.5-0.4
		h-6.3c-8.2,0-14.4,0-18.5,0.1l-0.3,0.3c-0.1,1.4-0.1,7.3-0.1,17.8c0,7.9,0.1,13.9,0.3,17.9l-0.3,0.3c-2.4-0.1-6-0.1-10.8-0.1
		c-4.9,0-8.5,0-10.9,0.1L4.9,250.9z"/>
	<path class="st0" d="M94.6,246.7c-5.2-4.1-7.8-10.4-7.8-19v-23c0-10.8-0.1-18.9-0.4-24.1l0.3-0.3c2.4,0.2,6,0.3,10.6,0.3
		c4.7,0,8.2-0.1,10.6-0.3l0.3,0.3c-0.3,5.2-0.4,13.3-0.4,24.1v20c0,3.9,0.9,6.7,2.7,8.4s4.6,2.5,8.5,2.5c3.9,0,6.8-0.8,8.5-2.5
		c1.8-1.6,2.7-4.4,2.7-8.2v-20.3c0-10.8-0.1-18.8-0.4-23.9l0.3-0.3c2.4,0.1,6,0.1,10.6,0.1c4.7,0,8.2,0,10.6-0.1l0.3,0.3
		c-0.3,5.1-0.4,13.1-0.4,23.9v23.9c0,8.1-2.6,14.2-7.8,18.1c-5.2,4-13.3,6-24.4,6C107.9,252.8,99.7,250.7,94.6,246.7z"/>
	<path class="st0" d="M169.8,250.9c0.3-7.3,0.4-18.2,0.4-32.9v-32.7c0-14.7-0.1-25.6-0.4-32.9l0.3-0.3c2.3,0.1,5.9,0.1,10.6,0.1
		c4.8,0,8.3,0,10.6-0.1l0.3,0.3c-0.3,7.3-0.4,18.2-0.4,32.9v32.8c0,14.7,0.1,25.6,0.4,32.9l-0.3,0.3c-2.3-0.1-5.9-0.1-10.6-0.1
		c-4.8,0-8.3,0-10.6,0.1L169.8,250.9z"/>
	<path class="st0" d="M209.8,250.9c0.3-7.3,0.4-18.2,0.4-32.9v-32.7c0-14.7-0.1-25.6-0.4-32.9l0.3-0.3c2.3,0.1,5.9,0.1,10.6,0.1
		c4.8,0,8.3,0,10.6-0.1l0.3,0.3c-0.3,7.3-0.4,18.2-0.4,32.9v32.8c0,14.7,0.1,25.6,0.4,32.9l-0.3,0.3c-2.3-0.1-5.9-0.1-10.6-0.1
		c-4.8,0-8.3,0-10.6,0.1L209.8,250.9z"/>
	<path class="st0" d="M257.9,250.5c-3.5-1.5-6.1-3.7-8-6.6c-1.9-2.9-2.8-6.3-2.8-10.2c0-4.9,1.4-9.2,4.3-12.7
		c2.9-3.5,7.1-6.3,12.7-8.2s12.4-2.9,20.3-2.9h5.5c0.3,0,0.4-0.1,0.4-0.4v-2.8c0-3.9-0.7-6.7-2.1-8.5c-1.4-1.7-3.6-2.6-6.6-2.6
		c-3.4,0-6,0.9-7.8,2.7s-2.7,4.1-2.7,6.9v1.3l-0.3,0.3c-4.5-0.2-7.9-0.3-10.2-0.3c-3.6,0-7.1,0.1-10.4,0.3l-0.3-0.3v-1.3
		c0-5.7,1.3-10.5,3.9-14.4c2.6-3.9,6.3-6.9,11-8.8c4.7-2,10.3-2.9,16.7-2.9c10.1,0,17.6,2.6,22.5,7.8s7.4,13.2,7.4,24.1v17.9
		c0,9.8,0.1,17.2,0.4,22.1l-0.3,0.3c-2.2-0.1-5.6-0.1-10.2-0.1c-4.5,0-7.8,0-10.1,0.1l-0.3-0.3l0.3-7.3l-0.3-0.1
		c-2,2.9-4.7,5.2-8.3,6.8c-3.6,1.6-7.8,2.5-12.7,2.5C265.4,252.8,261.3,252,257.9,250.5z M283.9,235.3c2.1-0.9,3.6-2.2,4.8-3.9
		c1.1-1.6,1.7-3.5,1.7-5.5v-1.8c0-0.4-0.2-0.6-0.6-0.6h-5.3c-5.1,0-9.1,0.7-12,2c-2.8,1.4-4.3,3.2-4.3,5.7c0,1.8,0.7,3.1,2.1,4.1
		c1.4,0.9,3.5,1.4,6.3,1.4S281.8,236.2,283.9,235.3z"/>
</g>
<g>
	<path class="st0" d="M21.6,396.1c-7-3.8-12.4-9.2-16.1-16.2S0,364.6,0,355.1c0-11,1.9-20.5,5.7-28.4s9.2-14,16.4-18.1
		c7.1-4.2,15.6-6.2,25.4-6.2c8.9,0,16.5,1.5,23,4.5c6.4,3,11.4,7.2,14.8,12.5c3.4,5.3,5.1,11.4,5.1,18.3v2.4l-0.3,0.3
		c-2.4-0.1-5.9-0.1-10.6-0.1s-8.2,0-10.5,0.1l-0.3-0.3v-0.4c0-4.9-1.6-8.8-4.9-11.9c-3.8-3.5-9.3-5.3-16.5-5.3
		c-7.6,0-13.6,2.6-18.2,7.7c-4.9,5.7-7.3,13.8-7.3,24.2c0,8.7,2.1,15.3,6.2,19.7c2.1,2.4,4.8,4.3,8,5.6c3.2,1.3,6.9,2,11,2
		c4.2,0,7.8-0.6,10.9-1.8c3-1.2,5.5-2.7,7.3-4.7c1.1-1.2,2-2.5,2.6-4c0.6-1.4,0.9-3,0.9-4.5v-0.4L69,366c2.3,0.2,5.8,0.3,10.5,0.3
		s8.2-0.1,10.5-0.3l0.3,0.3c-0.5,7-2.5,13.2-6.2,18.5c-3.6,5.4-8.7,9.5-15.1,12.5c-6.4,3-13.8,4.5-22.3,4.5
		C37,401.9,28.7,400,21.6,396.1z"/>
	<path class="st0" d="M105.7,400.9c0.3-5.2,0.4-13,0.4-23.4v-52.1c0-10.5-0.1-18.2-0.4-23.1l0.3-0.3c2.4,0.1,6,0.1,10.6,0.1
		c4.7,0,8.2,0,10.5-0.1l0.3,0.3c-0.2,4.9-0.3,12.6-0.3,23.1V338l0.3,0.1c2.9-2.9,6.2-5.2,9.9-6.8c3.7-1.6,7.6-2.5,11.5-2.5
		c4.2,0,7.9,1,11.1,3c3.2,2,5.6,4.9,7.3,8.8s2.6,8.5,2.6,13.8v23.1c0,10.5,0.1,18.3,0.4,23.2l-0.3,0.3c-2.3-0.1-5.9-0.1-10.6-0.1
		c-4.8,0-8.3,0-10.6,0.1l-0.3-0.3c0.3-4.9,0.4-12.6,0.4-23.1v-15.4c0-4.9-0.8-8.3-2.3-10.3s-3.8-3-6.7-3c-8.5,0-12.7,7.5-12.7,22.5
		v6.2c0,10.5,0.1,18.2,0.4,23.1l-0.3,0.3c-2.3-0.1-5.9-0.1-10.6-0.1c-4.8,0-8.3,0-10.6,0.1L105.7,400.9z"/>
	<path class="st0" d="M196.4,400.5c-3.5-1.5-6.1-3.7-8-6.6s-2.8-6.3-2.8-10.2c0-4.9,1.4-9.2,4.3-12.7c2.9-3.5,7.1-6.3,12.7-8.2
		c5.6-1.9,12.4-2.9,20.3-2.9h5.5c0.3,0,0.4-0.1,0.4-0.4v-2.8c0-3.9-0.7-6.7-2.1-8.5c-1.4-1.7-3.6-2.6-6.6-2.6c-3.4,0-6,0.9-7.8,2.7
		c-1.8,1.8-2.7,4.1-2.7,6.9v1.3l-0.3,0.3c-4.5-0.2-7.9-0.3-10.2-0.3c-3.6,0-7.1,0.1-10.4,0.3l-0.3-0.3v-1.3c0-5.7,1.3-10.5,3.9-14.4
		c2.6-3.9,6.3-6.9,11-8.8c4.7-2,10.3-2.9,16.7-2.9c10.1,0,17.6,2.6,22.5,7.8c4.9,5.2,7.4,13.2,7.4,24.2V379c0,9.8,0.1,17.2,0.4,22.1
		l-0.3,0.3c-2.2-0.1-5.6-0.1-10.2-0.1c-4.5,0-7.8,0-10.1,0.1l-0.3-0.3l0.3-7.3l-0.3-0.1c-2,2.9-4.7,5.2-8.3,6.8
		c-3.6,1.6-7.8,2.5-12.7,2.5C203.9,402.7,199.8,402,196.4,400.5z M222.4,385.2c2.1-0.9,3.6-2.2,4.8-3.9c1.1-1.6,1.7-3.5,1.7-5.5V374
		c0-0.4-0.2-0.6-0.6-0.6H223c-5.1,0-9.1,0.7-12,2c-2.8,1.4-4.3,3.2-4.3,5.7c0,1.8,0.7,3.1,2.1,4.1c1.4,0.9,3.5,1.4,6.3,1.4
		S220.4,386.1,222.4,385.2z"/>
	<path class="st0" d="M285.7,400c-3.7-1.6-6.5-4.2-8.2-7.8c-1.7-3.6-2.6-8.6-2.6-14.8c0-1.6,0-3.4,0.1-5.4s0.2-4.9,0.4-8.6
		c0.4-6.3,0.6-10.9,0.6-13.9v-1.4l-0.3-0.4h-4.3c-5.7,0-10,0.1-12.9,0.3l-0.3-0.3c0.1-1.9,0.1-4.7,0.1-8.5c0-3.6,0-6.4-0.1-8.4
		l0.3-0.3c3,0.1,7.4,0.1,13.2,0.1h4.3l0.3-0.3v-4.8c0-6.3-0.1-10.9-0.3-14l0.3-0.3c2.3,0.1,5.9,0.1,10.6,0.1s8.2,0,10.6-0.1l0.3,0.3
		c-0.3,2.1-0.4,4.5-0.5,6.9c0,2.5-0.1,4.9-0.1,7.2v4.6l0.3,0.3h4.8c6.3,0,11.1,0,14.3-0.1l0.3,0.3c-0.1,1.9-0.1,4.7-0.1,8.4
		c0,3.7,0,6.6,0.1,8.5l-0.3,0.3c-3.2-0.2-8-0.3-14.4-0.3h-4.9L297,348v1.4c0,2.9-0.1,5.9-0.3,9c-0.3,5.5-0.4,9.6-0.4,12.3
		c0,3.6,0.4,6.4,1.1,8.3s2,3.2,3.6,4c1.7,0.7,4,1.1,7,1.1c3.1,0,6.1-0.4,9.1-1.1l0.3,0.3c-0.2,1.9-0.3,4.7-0.3,8.5
		c0,3.9,0.1,6.8,0.3,8.5l-0.3,0.3c-6.1,1.1-11.6,1.7-16.5,1.7C294.4,402.4,289.4,401.6,285.7,400z"/>
</g>
</svg>
