<svg enable-background="new 0 0 317.4 404.3" viewBox="0 0 317.4 404.3" xmlns="http://www.w3.org/2000/svg" xmlns:xlink="http://www.w3.org/1999/xlink"><clipPath id="a"><path d="m203.5 30.8h76.8v107.4h-76.8z"/></clipPath><g fill="#fff"><path d="m4.9 101c.3-7.3.4-18.1.4-32.6v-32.6c0-14.5-.1-25.4-.4-32.7l.3-.2c6.6.1 16.6.1 29.8.1h10.6c13.3 0 23.2 0 29.8-.1l.3.3c-.1 2.2-.1 5.6-.1 9.9 0 4.5 0 7.8.1 10.1l-.3.3c-4.4-.2-11.2-.3-20.1-.3h-7.7c-9 0-15.7.1-20.2.3l-.3.3c-.2 2.2-.3 5.6-.3 10.2s0 8 .1 10.4l.3.3c4.1.1 10.3.1 18.5.1h6.3c3.1 0 6.3 0 9.5-.1 3.3 0 6.3-.2 9-.5l.3.4c-.1 2.2-.1 5.6-.1 10.1s0 7.9.1 10.2l-.3.4c-4.1-.3-10.3-.4-18.5-.4h-6.3c-8.2 0-14.4 0-18.5.1l-.2.3c-.1 1.4-.1 7.3-.1 17.8 0 7.9.1 13.9.3 17.9l-.3.3c-2.4-.1-6-.1-10.8-.1-4.9-.1-8.5 0-10.9.1z"/><path d="m88.6 18.8c-1.6-1.7-2.4-4.3-2.4-8 0-3.6.8-6.3 2.4-8 1.7-1.9 4.5-2.8 8.5-2.8 3.9 0 6.7.9 8.4 2.8 1.6 1.7 2.4 4.3 2.4 8 0 3.6-.8 6.3-2.4 8-1.7 1.9-4.5 2.8-8.4 2.8-4 0-6.8-.9-8.5-2.8zm-2.4 82.2c.3-4.9.4-12.6.4-23.1v-23.9c0-10.5-.1-18.2-.4-23.1l.3-.3c2.3.1 5.9.1 10.6.1 4.8 0 8.3 0 10.6-.1l.3.3c-.3 4.9-.4 12.6-.4 23.1v23.9c0 10.5.1 18.2.4 23.1l-.3.3c-2.3-.1-5.9-.1-10.6-.1-4.8 0-8.3 0-10.6.1z"/><path d="m126.3 101c.3-7.3.4-18.2.4-32.9v-32.8c0-14.7-.1-25.6-.4-32.9l.3-.3c2.3.2 5.8.2 10.6.2s8.3 0 10.6-.1l.3.3c-.3 7.3-.4 18.2-.4 32.9v32.8c0 14.7.1 25.6.4 32.9l-.3.3c-2.3-.1-5.9-.1-10.6-.1-4.8 0-8.3 0-10.6.1z"/><path d="m166.3 101c.3-7.3.4-18.2.4-32.9v-32.8c0-14.7-.1-25.6-.4-32.9l.3-.3c2.3.2 5.9.2 10.6.2 4.8 0 8.3 0 10.6-.1l.3.3c-.3 7.3-.4 18.2-.4 32.9v32.8c0 14.7.1 25.6.4 32.9l-.3.3c-2.3-.1-5.9-.1-10.6-.1-4.8 0-8.3 0-10.6.1z"/><path clip-path="url(#a)" d="m232.4 87.2c-2.7 0-4.8-.5-6.2-1.4s-2.1-2.2-2.1-4c0-2.4 1.4-4.2 4.2-5.5s6.7-2 11.7-2h5.3c.4 0 .5.2.5.5v1.8c0 2-.5 3.8-1.6 5.4s-2.7 2.9-4.7 3.8c-2 1-4.4 1.4-7.1 1.4m47.6 32.4c-4.5-.2-7.8-1.8-10.1-4.7-2.3-3-3.4-7-3.4-12.2v-40.7c0-10.7-2.4-18.5-7.2-23.6s-12.1-7.6-22-7.6c-6.3 0-11.7 1-16.4 2.9-4.6 1.9-8.2 4.8-10.7 8.6-2.6 3.8-3.8 8.5-3.8 14.1v1.2l.3.3c4.1-.2 7.5-.3 10.1-.3s6 .1 10 .3l.3-.3v-1.2c0-2.7.9-5 2.7-6.7s4.3-2.6 7.6-2.6c2.9 0 5.1.8 6.4 2.5 1.4 1.7 2.1 4.4 2.1 8.3v2.7c0 .3-.1.4-.4.4h-5.3c-7.8 0-14.4.9-19.8 2.8-5.5 1.9-9.6 4.5-12.5 8-2.8 3.5-4.2 7.6-4.2 12.5 0 3.8.9 7.2 2.7 10s4.4 5 7.8 6.4c3.4 1.5 7.3 2.2 11.9 2.2 4.4 0 8.2-.7 11.6-2.1 3.3-1.4 6-3.3 8-5.7l.4.1v8.8c0 6.7 1.3 12.5 3.8 17.4 2.6 5 6.2 8.9 10.9 11.8s10.2 4.5 16.5 5l.3-.3c.5-6.2 1.5-12.2 2.9-18.1z"/><path d="m4.9 250.9c.3-7.3.4-18.2.4-32.6v-32.6c0-14.5-.1-25.3-.4-32.6l.3-.3c6.6.1 16.6.1 29.8.1h10.6c13.3 0 23.2 0 29.8-.1l.3.3c-.1 2.2-.1 5.6-.1 9.9 0 4.5 0 7.8.1 10.1l-.3.3c-4.5-.2-11.2-.3-20.2-.3h-7.7c-9 0-15.7.1-20.2.3l-.3.3c-.2 2.2-.3 5.6-.3 10.2s0 8 .1 10.4l.3.3c4.1.1 10.3.1 18.5.1h6.3c3.1 0 6.3 0 9.5-.1 3.3 0 6.3-.2 9-.5l.3.4c-.1 2.2-.1 5.6-.1 10.1s0 7.9.1 10.2l-.3.4c-4.1-.3-10.3-.4-18.5-.4h-6.3c-8.2 0-14.4 0-18.5.1l-.3.3c-.1 1.4-.1 7.3-.1 17.8 0 7.9.1 13.9.3 17.9l-.3.3c-2.4-.1-6-.1-10.8-.1-4.9 0-8.5 0-10.9.1z"/><path d="m94.6 246.7c-5.2-4.1-7.8-10.4-7.8-19v-23c0-10.8-.1-18.9-.4-24.1l.3-.3c2.4.2 6 .3 10.6.3 4.7 0 8.2-.1 10.6-.3l.3.3c-.3 5.2-.4 13.3-.4 24.1v20c0 3.9.9 6.7 2.7 8.4s4.6 2.5 8.5 2.5 6.8-.8 8.5-2.5c1.8-1.6 2.7-4.4 2.7-8.2v-20.3c0-10.8-.1-18.8-.4-23.9l.3-.3c2.4.1 6 .1 10.6.1 4.7 0 8.2 0 10.6-.1l.3.3c-.3 5.1-.4 13.1-.4 23.9v23.9c0 8.1-2.6 14.2-7.8 18.1-5.2 4-13.3 6-24.4 6-11.1.2-19.3-1.9-24.4-5.9z"/><path d="m169.8 250.9c.3-7.3.4-18.2.4-32.9v-32.7c0-14.7-.1-25.6-.4-32.9l.3-.3c2.3.1 5.9.1 10.6.1 4.8 0 8.3 0 10.6-.1l.3.3c-.3 7.3-.4 18.2-.4 32.9v32.8c0 14.7.1 25.6.4 32.9l-.3.3c-2.3-.1-5.9-.1-10.6-.1-4.8 0-8.3 0-10.6.1z"/><path d="m209.8 250.9c.3-7.3.4-18.2.4-32.9v-32.7c0-14.7-.1-25.6-.4-32.9l.3-.3c2.3.1 5.9.1 10.6.1 4.8 0 8.3 0 10.6-.1l.3.3c-.3 7.3-.4 18.2-.4 32.9v32.8c0 14.7.1 25.6.4 32.9l-.3.3c-2.3-.1-5.9-.1-10.6-.1-4.8 0-8.3 0-10.6.1z"/><path d="m257.9 250.5c-3.5-1.5-6.1-3.7-8-6.6s-2.8-6.3-2.8-10.2c0-4.9 1.4-9.2 4.3-12.7s7.1-6.3 12.7-8.2 12.4-2.9 20.3-2.9h5.5c.3 0 .4-.1.4-.4v-2.8c0-3.9-.7-6.7-2.1-8.5-1.4-1.7-3.6-2.6-6.6-2.6-3.4 0-6 .9-7.8 2.7s-2.7 4.1-2.7 6.9v1.3l-.3.3c-4.5-.2-7.9-.3-10.2-.3-3.6 0-7.1.1-10.4.3l-.3-.3v-1.3c0-5.7 1.3-10.5 3.9-14.4s6.3-6.9 11-8.8c4.7-2 10.3-2.9 16.7-2.9 10.1 0 17.6 2.6 22.5 7.8s7.4 13.2 7.4 24.1v17.9c0 9.8.1 17.2.4 22.1l-.3.3c-2.2-.1-5.6-.1-10.2-.1-4.5 0-7.8 0-10.1.1l-.3-.3.3-7.3-.3-.1c-2 2.9-4.7 5.2-8.3 6.8s-7.8 2.5-12.7 2.5c-4.5-.1-8.6-.9-12-2.4zm26-15.2c2.1-.9 3.6-2.2 4.8-3.9 1.1-1.6 1.7-3.5 1.7-5.5v-1.8c0-.4-.2-.6-.6-.6h-5.3c-5.1 0-9.1.7-12 2-2.8 1.4-4.3 3.2-4.3 5.7 0 1.8.7 3.1 2.1 4.1 1.4.9 3.5 1.4 6.3 1.4s5.2-.5 7.3-1.4z"/><path d="m21.6 396.1c-7-3.8-12.4-9.2-16.1-16.2s-5.5-15.3-5.5-24.8c0-11 1.9-20.5 5.7-28.4s9.2-14 16.4-18.1c7.1-4.2 15.6-6.2 25.4-6.2 8.9 0 16.5 1.5 23 4.5 6.4 3 11.4 7.2 14.8 12.5s5.1 11.4 5.1 18.3v2.4l-.3.3c-2.4-.1-5.9-.1-10.6-.1s-8.2 0-10.5.1l-.3-.3v-.4c0-4.9-1.6-8.8-4.9-11.9-3.8-3.5-9.3-5.3-16.5-5.3-7.6 0-13.6 2.6-18.2 7.7-4.9 5.7-7.3 13.8-7.3 24.2 0 8.7 2.1 15.3 6.2 19.7 2.1 2.4 4.8 4.3 8 5.6s6.9 2 11 2c4.2 0 7.8-.6 10.9-1.8 3-1.2 5.5-2.7 7.3-4.7 1.1-1.2 2-2.5 2.6-4 .6-1.4.9-3 .9-4.5v-.4l.3-.3c2.3.2 5.8.3 10.5.3s8.2-.1 10.5-.3l.3.3c-.5 7-2.5 13.2-6.2 18.5-3.6 5.4-8.7 9.5-15.1 12.5s-13.8 4.5-22.3 4.5c-9.7.1-18-1.8-25.1-5.7z"/><path d="m105.7 400.9c.3-5.2.4-13 .4-23.4v-52.1c0-10.5-.1-18.2-.4-23.1l.3-.3c2.4.1 6 .1 10.6.1 4.7 0 8.2 0 10.5-.1l.3.3c-.2 4.9-.3 12.6-.3 23.1v12.6l.3.1c2.9-2.9 6.2-5.2 9.9-6.8s7.6-2.5 11.5-2.5c4.2 0 7.9 1 11.1 3s5.6 4.9 7.3 8.8 2.6 8.5 2.6 13.8v23.1c0 10.5.1 18.3.4 23.2l-.3.3c-2.3-.1-5.9-.1-10.6-.1-4.8 0-8.3 0-10.6.1l-.3-.3c.3-4.9.4-12.6.4-23.1v-15.4c0-4.9-.8-8.3-2.3-10.3s-3.8-3-6.7-3c-8.5 0-12.7 7.5-12.7 22.5v6.2c0 10.5.1 18.2.4 23.1l-.3.3c-2.3-.1-5.9-.1-10.6-.1-4.8 0-8.3 0-10.6.1z"/><path d="m196.4 400.5c-3.5-1.5-6.1-3.7-8-6.6s-2.8-6.3-2.8-10.2c0-4.9 1.4-9.2 4.3-12.7s7.1-6.3 12.7-8.2 12.4-2.9 20.3-2.9h5.5c.3 0 .4-.1.4-.4v-2.8c0-3.9-.7-6.7-2.1-8.5-1.4-1.7-3.6-2.6-6.6-2.6-3.4 0-6 .9-7.8 2.7s-2.7 4.1-2.7 6.9v1.3l-.3.3c-4.5-.2-7.9-.3-10.2-.3-3.6 0-7.1.1-10.4.3l-.3-.3v-1.3c0-5.7 1.3-10.5 3.9-14.4s6.3-6.9 11-8.8c4.7-2 10.3-2.9 16.7-2.9 10.1 0 17.6 2.6 22.5 7.8s7.4 13.2 7.4 24.2v17.9c0 9.8.1 17.2.4 22.1l-.3.3c-2.2-.1-5.6-.1-10.2-.1-4.5 0-7.8 0-10.1.1l-.3-.3.3-7.3-.3-.1c-2 2.9-4.7 5.2-8.3 6.8s-7.8 2.5-12.7 2.5c-4.5-.3-8.6-1-12-2.5zm26-15.3c2.1-.9 3.6-2.2 4.8-3.9 1.1-1.6 1.7-3.5 1.7-5.5v-1.8c0-.4-.2-.6-.6-.6h-5.3c-5.1 0-9.1.7-12 2-2.8 1.4-4.3 3.2-4.3 5.7 0 1.8.7 3.1 2.1 4.1 1.4.9 3.5 1.4 6.3 1.4s5.3-.5 7.3-1.4z"/><path d="m285.7 400c-3.7-1.6-6.5-4.2-8.2-7.8s-2.6-8.6-2.6-14.8c0-1.6 0-3.4.1-5.4s.2-4.9.4-8.6c.4-6.3.6-10.9.6-13.9v-1.4l-.3-.4h-4.3c-5.7 0-10 .1-12.9.3l-.3-.3c.1-1.9.1-4.7.1-8.5 0-3.6 0-6.4-.1-8.4l.3-.3c3 .1 7.4.1 13.2.1h4.3l.3-.3v-4.8c0-6.3-.1-10.9-.3-14l.3-.3c2.3.1 5.9.1 10.6.1s8.2 0 10.6-.1l.3.3c-.3 2.1-.4 4.5-.5 6.9 0 2.5-.1 4.9-.1 7.2v4.6l.3.3h4.8c6.3 0 11.1 0 14.3-.1l.3.3c-.1 1.9-.1 4.7-.1 8.4s0 6.6.1 8.5l-.3.3c-3.2-.2-8-.3-14.4-.3h-4.9l-.3.4v1.4c0 2.9-.1 5.9-.3 9-.3 5.5-.4 9.6-.4 12.3 0 3.6.4 6.4 1.1 8.3s2 3.2 3.6 4c1.7.7 4 1.1 7 1.1 3.1 0 6.1-.4 9.1-1.1l.3.3c-.2 1.9-.3 4.7-.3 8.5 0 3.9.1 6.8.3 8.5l-.3.3c-6.1 1.1-11.6 1.7-16.5 1.7-6.2.1-11.2-.7-14.9-2.3z"/></g></svg>